# xmcd CD database file
#
# Track frame offsets:
#	182
#	17175
#	34750
#	49147
#	67350
#	72907
#	99632
#	116122
#	135317
#	157312
#	169820
#	187735
#	199475
#
# Disc length: 2989 seconds
#
# Revision: 0
# Processed by: cddbd v1.5.1PL0 Copyright (c) Steve Scherf et al.
# Submitted via: CDex 1.50beta9
#
DISCID=c40bab0d
DTITLE=DERMOT HEGARTY - Favourite Traditional Melodies
DYEAR=1900
DGENRE=Country
TTITLE0=Danny Farrell
TTITLE1=James Connelly
TTITLE2=Sleive Na Mban
TTITLE3=Avondale
TTITLE4=Hi For The Beggarman
TTITLE5=Town I Loved So Well
TTITLE6=Scorn Not His Simplicity
TTITLE7=Red IS The Rose
TTITLE8=Sweet Alice ben Bolt
TTITLE9=Maid Of Fyfe
TTITLE10=Lakes Of Fyfe
TTITLE11=Shores Of Lough Bran
TTITLE12=Sound The Piobrach
EXTD=
EXTT0=
EXTT1=
EXTT2=
EXTT3=
EXTT4=
EXTT5=
EXTT6=
EXTT7=
EXTT8=
EXTT9=
EXTT10=
EXTT11=
EXTT12=
PLAYORDER=
